<svg xmlns="http://www.w3.org/2000/svg" version="1.2" viewBox="0 0 512 512" id="apk-file"><path fill="#FFF" d="M422.3 477.9c0 7.6-6.2 13.8-13.8 13.8h-305c-7.6 0-13.8-6.2-13.8-13.8V34.1c0-7.6 6.2-13.8 13.8-13.8h230.1V109h88.7v368.9z"></path><path fill="#24A885" d="M333.6 6H103.5C88 6 75.4 18.6 75.4 34.1v443.8c0 15.5 12.6 28.1 27.1 28.1h305c16.5 0 29.1-12.6 29.1-28.1V109.1L333.6 6zm88.7 471.9c0 7.6-6.2 13.8-13.8 13.8h-305c-7.6 0-13.8-6.2-13.8-13.8V34.1c0-7.6 6.2-13.8 13.8-13.8h230.1V109h88.7v368.9z"></path><path fill="#16876B" d="M333.6 6v103.1h103zM465.9 450.8H46.1V308c0-9.8 7.9-17.7 17.7-17.7h384.3c9.8 0 17.7 7.9 17.7 17.7v142.8z"></path><path fill="#59E0B9" d="M436.6 450.8v19.5l29.3-19.5zM75.4 450.8v19.5l-29.3-19.5z"></path><path fill="#2EBA98" d="M64.1 308.4h383.7v124.5H64.1z"></path><g fill="#16876B"><path d="M298.3 78.6h-177a6.7 6.7 0 0 1 0-13.4h177a6.7 6.7 0 0 1 0 13.4zM298.3 110.6h-177a6.7 6.7 0 0 1 0-13.4h177a6.7 6.7 0 0 1 0 13.4zM391.8 142.5H121.3a6.7 6.7 0 0 1 0-13.4h270.5a6.7 6.7 0 0 1 0 13.4zM391.8 174.5H121.3a6.7 6.7 0 0 1 0-13.4h270.5a6.7 6.7 0 0 1 0 13.4zM391.8 206.5H121.3a6.7 6.7 0 0 1 0-13.4h270.5a6.7 6.7 0 0 1 0 13.4zM391.8 238.4H121.3a6.7 6.7 0 0 1 0-13.4h270.5a6.7 6.7 0 0 1 0 13.4zM391.8 270.4H121.3a6.7 6.7 0 0 1 0-13.4h270.5a6.7 6.7 0 0 1 0 13.4z"></path></g><g fill="#FFF"><path d="M204.4 396.6c-.6-1-1.1-2.2-1.5-3.5-.4-1.3-.7-2.7-.9-4.1-1.3 2.6-3 4.7-4.9 6.3-2 1.6-4.5 2.3-7.7 2.3-5.2 0-9.2-1.3-12-4-2.9-2.7-4.3-6.3-4.3-10.9 0-4.9 1.8-8.7 5.5-11.3 3.7-2.7 9.2-4 16.7-4h6.3v-3.5c0-2.1-.5-3.7-1.5-4.8-1-1.1-2.5-1.7-4.6-1.7-1.8 0-3.1.4-4 1.3-.9.8-1.3 2.1-1.3 3.9h-14.9l-.1-.3c-.2-4.5 1.7-8.3 5.6-11.3 4-3 9.2-4.5 15.7-4.5 6.1 0 11 1.5 14.8 4.6 3.8 3 5.7 7.4 5.7 13v18.6c0 2.6.2 5 .7 7.3.4 2.2 1.1 4.5 2 6.7l-15.3-.1zm-10.8-10c1.9 0 3.5-.4 5-1.3 1.4-.9 2.5-1.9 3-3.1v-6.5h-6.2c-2.5 0-4.2.6-5.3 1.8-1.1 1.2-1.6 2.7-1.6 4.5 0 1.4.5 2.5 1.4 3.4.9.8 2.1 1.2 3.7 1.2zM277.6 373.1c0 7.4-1.7 13.4-5 17.8-3.3 4.5-8 6.7-14.1 6.7-2.4 0-4.5-.5-6.3-1.4-1.8-.9-3.4-2.2-4.8-4v23.3H232v-68.2h14.5l.5 5.4c1.4-2 3-3.6 4.9-4.6 1.9-1.1 4.1-1.6 6.5-1.6 6.1 0 10.8 2.4 14.2 7.1 3.4 4.7 5 10.9 5 18.6v.9zm-15.4-1c0-4.2-.6-7.5-1.8-10-1.2-2.5-3.2-3.8-5.8-3.8-1.7 0-3.2.3-4.4 1-1.2.6-2.1 1.6-2.8 2.8v20.6c.7 1.1 1.7 1.9 2.9 2.4s2.7.8 4.4.8c2.7 0 4.6-1.1 5.8-3.3 1.2-2.2 1.8-5.4 1.8-9.4v-1.1zM309.1 377.1h-2.8v19.6h-15.4v-71.1h15.4v39.9h2.2l10.4-18.1h17.6l-15.2 22.2 17.7 27.1h-17.5l-12.4-19.6z"></path></g></svg>