<svg width="96" height="107" viewBox="0 0 96 107" fill="none" xmlns="http://www.w3.org/2000/svg">
<path d="M95.7694 106.363H14V0H70.2165L95.7694 25.3245V106.363Z" fill="#CBA610"/>
<path d="M92.2753 28.0582H68V4L92.2753 28.0582Z" fill="#F3CE38"/>
<rect y="16" width="55" height="28" rx="4" fill="#AF8F0E"/>
<path d="M23.2852 30.3115V35.3828C23.0859 35.623 22.7783 35.8838 22.3623 36.165C21.9463 36.4404 21.4102 36.6777 20.7539 36.877C20.0977 37.0762 19.3037 37.1758 18.3721 37.1758C17.5459 37.1758 16.793 37.041 16.1133 36.7715C15.4336 36.4961 14.8477 36.0947 14.3555 35.5674C13.8691 35.04 13.4941 34.3955 13.2305 33.6338C12.9668 32.8662 12.835 31.9902 12.835 31.0059V30.2061C12.835 29.2217 12.9609 28.3457 13.2129 27.5781C13.4707 26.8105 13.8369 26.1631 14.3115 25.6357C14.7861 25.1084 15.3516 24.707 16.0078 24.4316C16.6641 24.1562 17.3936 24.0186 18.1963 24.0186C19.3096 24.0186 20.2236 24.2002 20.9385 24.5635C21.6533 24.9209 22.1982 25.4189 22.5732 26.0576C22.9541 26.6904 23.1885 27.417 23.2764 28.2373H20.7188C20.6543 27.8037 20.5312 27.4258 20.3496 27.1035C20.168 26.7812 19.9072 26.5293 19.5674 26.3477C19.2334 26.166 18.7998 26.0752 18.2666 26.0752C17.8271 26.0752 17.4346 26.166 17.0889 26.3477C16.749 26.5234 16.4619 26.7842 16.2275 27.1299C15.9932 27.4756 15.8145 27.9033 15.6914 28.4131C15.5684 28.9229 15.5068 29.5146 15.5068 30.1885V31.0059C15.5068 31.6738 15.5713 32.2656 15.7002 32.7812C15.8291 33.291 16.0195 33.7217 16.2715 34.0732C16.5293 34.4189 16.8457 34.6797 17.2207 34.8555C17.5957 35.0312 18.0322 35.1191 18.5303 35.1191C18.9463 35.1191 19.292 35.084 19.5674 35.0137C19.8486 34.9434 20.0742 34.8584 20.2441 34.7588C20.4199 34.6533 20.5547 34.5537 20.6484 34.46V32.1924H18.2402V30.3115H23.2852ZM27.7838 24.2031V37H25.1559V24.2031H27.7838ZM32.4583 24.2031V37H29.8215V24.2031H32.4583ZM37.5559 29.6699V31.7266H31.7376V29.6699H37.5559ZM38.1712 24.2031V26.2686H31.7376V24.2031H38.1712Z" fill="#F3CE38"/>
<path fill-rule="evenodd" clip-rule="evenodd" d="M48.0039 76.9883L40.9727 85.9883H68.9922L59.9922 74L52.9961 83L48.0039 76.9883ZM73 87.9922C73 89.0938 72.6074 90.0371 71.8223 90.8223C71.0371 91.6074 70.0938 92 68.9922 92H40.9727C39.8945 92 38.9629 91.6074 38.1777 90.8223C37.3926 90.0371 37 89.0938 37 87.9922V59.9727C37 58.8945 37.3926 57.9629 38.1777 57.1777C38.9629 56.3926 39.8945 56 40.9727 56H68.9922C70.0938 56 71.0371 56.3867 71.8223 57.1602C72.6074 57.9336 73 58.8711 73 59.9727V87.9922Z" fill="#F3CE38"/>
</svg>
