<svg width="96" height="107" viewBox="0 0 96 107" fill="none" xmlns="http://www.w3.org/2000/svg">
<path d="M95.7694 106.363H14V0H70.2165L95.7694 25.3245V106.363Z" fill="#CBA610"/>
<path d="M92.2753 28.0582H68V4L92.2753 28.0582Z" fill="#F3CE38"/>
<rect y="16" width="55" height="28" rx="4" fill="#AF8F0E"/>
<path d="M11.3193 32.0713V23.2031H13.9473V32.0713C13.9473 32.9268 13.7598 33.6621 13.3848 34.2773C13.0098 34.8867 12.4971 35.3555 11.8467 35.6836C11.2021 36.0117 10.4756 36.1758 9.66699 36.1758C8.8291 36.1758 8.08789 36.0352 7.44336 35.7539C6.79883 35.4727 6.29199 35.042 5.92285 34.4619C5.55371 33.876 5.36914 33.1348 5.36914 32.2383H8.01465C8.01465 32.707 8.0791 33.0791 8.20801 33.3545C8.34277 33.6299 8.5332 33.8262 8.7793 33.9434C9.02539 34.0605 9.32129 34.1191 9.66699 34.1191C10.001 34.1191 10.291 34.04 10.5371 33.8818C10.7832 33.7236 10.9736 33.4922 11.1084 33.1875C11.249 32.8828 11.3193 32.5107 11.3193 32.0713ZM20.7487 31.4385H17.4879V29.3818H20.7487C21.2526 29.3818 21.6627 29.2998 21.9791 29.1357C22.2955 28.9658 22.527 28.7314 22.6735 28.4326C22.82 28.1338 22.8932 27.7969 22.8932 27.4219C22.8932 27.041 22.82 26.6865 22.6735 26.3584C22.527 26.0303 22.2955 25.7666 21.9791 25.5674C21.6627 25.3682 21.2526 25.2686 20.7487 25.2686H18.402V36H15.7653V23.2031H20.7487C21.7506 23.2031 22.609 23.3848 23.3239 23.748C24.0446 24.1055 24.5953 24.6006 24.9762 25.2334C25.3571 25.8662 25.5475 26.5898 25.5475 27.4043C25.5475 28.2305 25.3571 28.9453 24.9762 29.5488C24.5953 30.1523 24.0446 30.6182 23.3239 30.9463C22.609 31.2744 21.7506 31.4385 20.7487 31.4385ZM35.5217 33.9434V36H28.7102V33.9434H35.5217ZM29.5715 23.2031V36H26.9348V23.2031H29.5715ZM34.634 28.415V30.4189H28.7102V28.415H34.634ZM35.513 23.2031V25.2686H28.7102V23.2031H35.513ZM46.7704 29.3115V34.3828C46.5712 34.623 46.2636 34.8838 45.8476 35.165C45.4315 35.4404 44.8954 35.6777 44.2392 35.877C43.5829 36.0762 42.789 36.1758 41.8573 36.1758C41.0311 36.1758 40.2782 36.041 39.5985 35.7715C38.9188 35.4961 38.3329 35.0947 37.8407 34.5674C37.3544 34.04 36.9794 33.3955 36.7157 32.6338C36.452 31.8662 36.3202 30.9902 36.3202 30.0059V29.2061C36.3202 28.2217 36.4462 27.3457 36.6981 26.5781C36.956 25.8105 37.3222 25.1631 37.7968 24.6357C38.2714 24.1084 38.8368 23.707 39.4931 23.4316C40.1493 23.1562 40.8788 23.0186 41.6815 23.0186C42.7948 23.0186 43.7089 23.2002 44.4237 23.5635C45.1386 23.9209 45.6835 24.4189 46.0585 25.0576C46.4394 25.6904 46.6737 26.417 46.7616 27.2373H44.204C44.1395 26.8037 44.0165 26.4258 43.8349 26.1035C43.6532 25.7812 43.3925 25.5293 43.0526 25.3477C42.7186 25.166 42.2851 25.0752 41.7519 25.0752C41.3124 25.0752 40.9198 25.166 40.5741 25.3477C40.2343 25.5234 39.9472 25.7842 39.7128 26.1299C39.4784 26.4756 39.2997 26.9033 39.1767 27.4131C39.0536 27.9229 38.9921 28.5146 38.9921 29.1885V30.0059C38.9921 30.6738 39.0565 31.2656 39.1854 31.7812C39.3144 32.291 39.5048 32.7217 39.7567 33.0732C40.0145 33.4189 40.331 33.6797 40.706 33.8555C41.081 34.0312 41.5175 34.1191 42.0155 34.1191C42.4315 34.1191 42.7772 34.084 43.0526 34.0137C43.3339 33.9434 43.5595 33.8584 43.7294 33.7588C43.9052 33.6533 44.0399 33.5537 44.1337 33.46V31.1924H41.7255V29.3115H46.7704Z" fill="#F3CE38"/>
<path fill-rule="evenodd" clip-rule="evenodd" d="M48.0039 76.9883L40.9727 85.9883H68.9922L59.9922 74L52.9961 83L48.0039 76.9883ZM73 87.9922C73 89.0938 72.6074 90.0371 71.8223 90.8223C71.0371 91.6074 70.0938 92 68.9922 92H40.9727C39.8945 92 38.9629 91.6074 38.1777 90.8223C37.3926 90.0371 37 89.0938 37 87.9922V59.9727C37 58.8945 37.3926 57.9629 38.1777 57.1777C38.9629 56.3926 39.8945 56 40.9727 56H68.9922C70.0938 56 71.0371 56.3867 71.8223 57.1602C72.6074 57.9336 73 58.8711 73 59.9727V87.9922Z" fill="#F3CE38"/>
</svg>
