<svg width="96" height="107" viewBox="0 0 96 107" fill="none" xmlns="http://www.w3.org/2000/svg">
<path d="M95.7694 106.363H14V0H70.2165L95.7694 25.3245V106.363Z" fill="#CBA610"/>
<path d="M92.2753 28.0582H68V4L92.2753 28.0582Z" fill="#F3CE38"/>
<rect y="16" width="55" height="28" rx="4" fill="#AF8F0E"/>
<path d="M16.3193 33.0713V24.2031H18.9473V33.0713C18.9473 33.9268 18.7598 34.6621 18.3848 35.2773C18.0098 35.8867 17.4971 36.3555 16.8467 36.6836C16.2021 37.0117 15.4756 37.1758 14.667 37.1758C13.8291 37.1758 13.0879 37.0352 12.4434 36.7539C11.7988 36.4727 11.292 36.042 10.9229 35.4619C10.5537 34.876 10.3691 34.1348 10.3691 33.2383H13.0146C13.0146 33.707 13.0791 34.0791 13.208 34.3545C13.3428 34.6299 13.5332 34.8262 13.7793 34.9434C14.0254 35.0605 14.3213 35.1191 14.667 35.1191C15.001 35.1191 15.291 35.04 15.5371 34.8818C15.7832 34.7236 15.9736 34.4922 16.1084 34.1875C16.249 33.8828 16.3193 33.5107 16.3193 33.0713ZM25.7487 32.4385H22.4879V30.3818H25.7487C26.2526 30.3818 26.6627 30.2998 26.9791 30.1357C27.2955 29.9658 27.527 29.7314 27.6735 29.4326C27.82 29.1338 27.8932 28.7969 27.8932 28.4219C27.8932 28.041 27.82 27.6865 27.6735 27.3584C27.527 27.0303 27.2955 26.7666 26.9791 26.5674C26.6627 26.3682 26.2526 26.2686 25.7487 26.2686H23.402V37H20.7653V24.2031H25.7487C26.7506 24.2031 27.609 24.3848 28.3239 24.748C29.0446 25.1055 29.5953 25.6006 29.9762 26.2334C30.3571 26.8662 30.5475 27.5898 30.5475 28.4043C30.5475 29.2305 30.3571 29.9453 29.9762 30.5488C29.5953 31.1523 29.0446 31.6182 28.3239 31.9463C27.609 32.2744 26.7506 32.4385 25.7487 32.4385ZM42.0774 30.3115V35.3828C41.8782 35.623 41.5706 35.8838 41.1546 36.165C40.7385 36.4404 40.2024 36.6777 39.5462 36.877C38.8899 37.0762 38.096 37.1758 37.1643 37.1758C36.3381 37.1758 35.5852 37.041 34.9055 36.7715C34.2258 36.4961 33.6399 36.0947 33.1477 35.5674C32.6614 35.04 32.2864 34.3955 32.0227 33.6338C31.759 32.8662 31.6272 31.9902 31.6272 31.0059V30.2061C31.6272 29.2217 31.7532 28.3457 32.0051 27.5781C32.263 26.8105 32.6292 26.1631 33.1038 25.6357C33.5784 25.1084 34.1438 24.707 34.8001 24.4316C35.4563 24.1562 36.1858 24.0186 36.9885 24.0186C38.1018 24.0186 39.0159 24.2002 39.7307 24.5635C40.4456 24.9209 40.9905 25.4189 41.3655 26.0576C41.7464 26.6904 41.9807 27.417 42.0686 28.2373H39.511C39.4465 27.8037 39.3235 27.4258 39.1419 27.1035C38.9602 26.7812 38.6995 26.5293 38.3596 26.3477C38.0256 26.166 37.5921 26.0752 37.0589 26.0752C36.6194 26.0752 36.2268 26.166 35.8811 26.3477C35.5413 26.5234 35.2542 26.7842 35.0198 27.1299C34.7854 27.4756 34.6067 27.9033 34.4837 28.4131C34.3606 28.9229 34.2991 29.5146 34.2991 30.1885V31.0059C34.2991 31.6738 34.3635 32.2656 34.4924 32.7812C34.6214 33.291 34.8118 33.7217 35.0637 34.0732C35.3215 34.4189 35.638 34.6797 36.013 34.8555C36.388 35.0312 36.8245 35.1191 37.3225 35.1191C37.7385 35.1191 38.0842 35.084 38.3596 35.0137C38.6409 34.9434 38.8665 34.8584 39.0364 34.7588C39.2122 34.6533 39.3469 34.5537 39.4407 34.46V32.1924H37.0325V30.3115H42.0774Z" fill="#F3CE38"/>
<path fill-rule="evenodd" clip-rule="evenodd" d="M48.0039 76.9883L40.9727 85.9883H68.9922L59.9922 74L52.9961 83L48.0039 76.9883ZM73 87.9922C73 89.0938 72.6074 90.0371 71.8223 90.8223C71.0371 91.6074 70.0938 92 68.9922 92H40.9727C39.8945 92 38.9629 91.6074 38.1777 90.8223C37.3926 90.0371 37 89.0938 37 87.9922V59.9727C37 58.8945 37.3926 57.9629 38.1777 57.1777C38.9629 56.3926 39.8945 56 40.9727 56H68.9922C70.0938 56 71.0371 56.3867 71.8223 57.1602C72.6074 57.9336 73 58.8711 73 59.9727V87.9922Z" fill="#F3CE38"/>
</svg>
