<svg width="96" height="107" viewBox="0 0 96 107" fill="none" xmlns="http://www.w3.org/2000/svg">
<g clip-path="url(#clip0_0_360)">
<path d="M95.7694 106.363H14V0H70.2165L95.7694 25.3245V106.363Z" fill="#A75FD9"/>
<path d="M92.2753 28.0582H68V4L92.2753 28.0582Z" fill="#DBA7FF"/>
<rect y="16" width="55" height="28" rx="4" fill="#8950B1"/>
<path d="M9.34668 24.2031H11.5791L14.8662 33.5986L18.1533 24.2031H20.3857L15.7627 37H13.9697L9.34668 24.2031ZM8.14258 24.2031H10.3662L10.7705 33.3613V37H8.14258V24.2031ZM19.3662 24.2031H21.5986V37H18.9619V33.3613L19.3662 24.2031ZM26.1149 24.2031V37H23.4782V24.2031H26.1149ZM33.7789 24.2031L28.7076 30.5225L25.7809 33.6689L25.3063 31.1729L27.2838 28.4658L30.5446 24.2031H33.7789ZM30.7819 37L27.0114 31.085L28.9625 29.4502L33.902 37H30.7819ZM39.1038 34.3281L42.1184 24.2031H45.054L40.5979 37H38.6643L39.1038 34.3281ZM36.3264 24.2031L39.3323 34.3281L39.7893 37H37.8381L33.4085 24.2031H36.3264Z" fill="#CC98F1"/>
</g>
<defs>
<clipPath id="clip0_0_360">
<rect width="96" height="107" fill="white"/>
</clipPath>
</defs>
</svg>
