<svg width="96" height="107" viewBox="0 0 96 107" fill="none" xmlns="http://www.w3.org/2000/svg">
<path d="M95.7694 106.363H14V0H70.2165L95.7694 25.3245V106.363Z" fill="#32373F"/>
<path d="M92.2753 28.0582H68V4L92.2753 28.0582Z" fill="#D1D1D1"/>
<rect y="16" width="55" height="28" rx="4" fill="black"/>
<path d="M9.34668 24.2031H11.5791L14.8662 33.5986L18.1533 24.2031H20.3857L15.7627 37H13.9697L9.34668 24.2031ZM8.14258 24.2031H10.3662L10.7705 33.3613V37H8.14258V24.2031ZM19.3662 24.2031H21.5986V37H18.9619V33.3613L19.3662 24.2031ZM28.4616 32.4385H25.2008V30.3818H28.4616C28.9655 30.3818 29.3756 30.2998 29.692 30.1357C30.0084 29.9658 30.2399 29.7314 30.3864 29.4326C30.5328 29.1338 30.6061 28.7969 30.6061 28.4219C30.6061 28.041 30.5328 27.6865 30.3864 27.3584C30.2399 27.0303 30.0084 26.7666 29.692 26.5674C29.3756 26.3682 28.9655 26.2686 28.4616 26.2686H26.1149V37H23.4782V24.2031H28.4616C29.4635 24.2031 30.3219 24.3848 31.0367 24.748C31.7575 25.1055 32.3082 25.6006 32.6891 26.2334C33.07 26.8662 33.2604 27.5898 33.2604 28.4043C33.2604 29.2305 33.07 29.9453 32.6891 30.5488C32.3082 31.1523 31.7575 31.6182 31.0367 31.9463C30.3219 32.2744 29.4635 32.4385 28.4616 32.4385ZM36.9768 29.5029H38.3303C38.7639 29.5029 39.1214 29.4297 39.4026 29.2832C39.6839 29.1309 39.8919 28.9199 40.0266 28.6504C40.1672 28.375 40.2376 28.0557 40.2376 27.6924C40.2376 27.3643 40.1731 27.0742 40.0442 26.8223C39.9212 26.5645 39.7307 26.3652 39.4729 26.2246C39.2151 26.0781 38.8899 26.0049 38.4973 26.0049C38.1868 26.0049 37.8997 26.0664 37.636 26.1895C37.3723 26.3125 37.1614 26.4854 37.0032 26.708C36.845 26.9307 36.7659 27.2002 36.7659 27.5166H34.2258C34.2258 26.8135 34.4133 26.2012 34.7883 25.6797C35.1692 25.1582 35.679 24.751 36.3176 24.458C36.9563 24.165 37.6594 24.0186 38.427 24.0186C39.2942 24.0186 40.053 24.1592 40.7034 24.4404C41.3538 24.7158 41.8606 25.123 42.2239 25.6621C42.5872 26.2012 42.7688 26.8691 42.7688 27.666C42.7688 28.0703 42.6751 28.4629 42.4876 28.8438C42.3001 29.2188 42.0305 29.5586 41.679 29.8633C41.3333 30.1621 40.9114 30.4023 40.4133 30.584C39.9153 30.7598 39.3557 30.8477 38.7346 30.8477H36.9768V29.5029ZM36.9768 31.4277V30.1182H38.7346C39.4319 30.1182 40.0442 30.1973 40.5715 30.3555C41.0989 30.5137 41.5413 30.7422 41.8987 31.041C42.2561 31.334 42.5256 31.6826 42.7073 32.0869C42.8889 32.4854 42.9797 32.9277 42.9797 33.4141C42.9797 34.0117 42.8655 34.5449 42.637 35.0137C42.4085 35.4766 42.0862 35.8691 41.6702 36.1914C41.26 36.5137 40.7796 36.7598 40.2288 36.9297C39.678 37.0938 39.0774 37.1758 38.427 37.1758C37.888 37.1758 37.3577 37.1025 36.8362 36.9561C36.3206 36.8037 35.8518 36.5781 35.4299 36.2793C35.0139 35.9746 34.6799 35.5938 34.428 35.1367C34.1819 34.6738 34.0589 34.126 34.0589 33.4932H36.5989C36.5989 33.8213 36.6809 34.1143 36.845 34.3721C37.009 34.6299 37.2346 34.832 37.5217 34.9785C37.8147 35.125 38.1399 35.1982 38.4973 35.1982C38.9016 35.1982 39.2473 35.125 39.5344 34.9785C39.8274 34.8262 40.0501 34.6152 40.2024 34.3457C40.3606 34.0703 40.4397 33.751 40.4397 33.3877C40.4397 32.9189 40.3547 32.5439 40.1848 32.2627C40.0149 31.9756 39.7717 31.7646 39.4553 31.6299C39.1389 31.4951 38.7639 31.4277 38.3303 31.4277H36.9768Z" fill="#D1D1D1"/>
<path fill-rule="evenodd" clip-rule="evenodd" d="M62.9844 65.9922V61.9844H55.0039V72.9883C54.582 72.6836 54.1191 72.4434 53.6152 72.2676C53.1113 72.0918 52.5664 72.0039 51.9805 72.0039C50.5976 72.0039 49.4199 72.4902 48.4473 73.4629C47.4746 74.4356 46.9883 75.6133 46.9883 76.9961C46.9883 78.3789 47.4746 79.5566 48.4473 80.5293C49.4199 81.502 50.5976 81.9883 51.9805 81.9883C53.3633 81.9883 54.5469 81.502 55.5312 80.5293C56.5156 79.5566 57.0078 78.3789 57.0078 76.9961V65.9922H62.9844ZM55.0039 52C57.7461 52 60.3359 52.5215 62.7734 53.5645C65.2109 54.6074 67.332 56.0371 69.1367 57.8535C70.9414 59.6699 72.3711 61.791 73.4258 64.2168C74.4805 66.6426 75.0078 69.2383 75.0078 72.0039C75.0078 74.7461 74.4805 77.3359 73.4258 79.7734C72.3711 82.2109 70.9414 84.332 69.1367 86.1367C67.332 87.9414 65.2109 89.3711 62.7734 90.4258C60.3359 91.4805 57.7461 92.0078 55.0039 92.0078C52.2383 92.0078 49.6426 91.4805 47.2168 90.4258C44.791 89.3711 42.6699 87.9414 40.8535 86.1367C39.0371 84.332 37.6074 82.2109 36.5645 79.7734C35.5215 77.3359 35 74.7461 35 72.0039C35 69.2383 35.5215 66.6426 36.5645 64.2168C37.6074 61.791 39.0371 59.6699 40.8535 57.8535C42.6699 56.0371 44.791 54.6074 47.2168 53.5645C49.6426 52.5215 52.2383 52 55.0039 52Z" fill="#D1D1D1"/>
</svg>
