<svg width="96" height="107" viewBox="0 0 96 107" fill="none" xmlns="http://www.w3.org/2000/svg">
<g clip-path="url(#clip0_0_354)">
<path d="M95.7694 106.363H14V0H70.2165L95.7694 25.3245V106.363Z" fill="#A75FD9"/>
<path d="M92.2753 28.0582H68V4L92.2753 28.0582Z" fill="#DBA7FF"/>
<rect y="16" width="55" height="28" rx="4" fill="#8950B1"/>
<path d="M9.34668 24.2031H11.5791L14.8662 33.5986L18.1533 24.2031H20.3857L15.7627 37H13.9697L9.34668 24.2031ZM8.14258 24.2031H10.3662L10.7705 33.3613V37H8.14258V24.2031ZM19.3662 24.2031H21.5986V37H18.9619V33.3613L19.3662 24.2031ZM28.4616 32.4385H25.2008V30.3818H28.4616C28.9655 30.3818 29.3756 30.2998 29.692 30.1357C30.0084 29.9658 30.2399 29.7314 30.3864 29.4326C30.5328 29.1338 30.6061 28.7969 30.6061 28.4219C30.6061 28.041 30.5328 27.6865 30.3864 27.3584C30.2399 27.0303 30.0084 26.7666 29.692 26.5674C29.3756 26.3682 28.9655 26.2686 28.4616 26.2686H26.1149V37H23.4782V24.2031H28.4616C29.4635 24.2031 30.3219 24.3848 31.0367 24.748C31.7575 25.1055 32.3082 25.6006 32.6891 26.2334C33.07 26.8662 33.2604 27.5898 33.2604 28.4043C33.2604 29.2305 33.07 29.9453 32.6891 30.5488C32.3082 31.1523 31.7575 31.6182 31.0367 31.9463C30.3219 32.2744 29.4635 32.4385 28.4616 32.4385ZM43.3489 32.2188V34.2051H34.1292L34.0061 32.667L39.3411 24.2031H41.3538L39.1741 27.8506L36.5198 32.2188H43.3489ZM41.8987 24.2031V37H39.3674V24.2031H41.8987Z" fill="#CC98F1"/>
</g>
<defs>
<clipPath id="clip0_0_354">
<rect width="96" height="107" fill="white"/>
</clipPath>
</defs>
</svg>
