<svg width="96" height="107" viewBox="0 0 96 107" fill="none" xmlns="http://www.w3.org/2000/svg">
<path d="M95.7694 106.363H14V0H70.2165L95.7694 25.3245V106.363Z" fill="#CBA610"/>
<path d="M92.2753 28.0582H68V4L92.2753 28.0582Z" fill="#F3CE38"/>
<rect y="16" width="55" height="28" rx="4" fill="#AF8F0E"/>
<path d="M15.126 32.4385H11.8652V30.3818H15.126C15.6299 30.3818 16.04 30.2998 16.3564 30.1357C16.6729 29.9658 16.9043 29.7314 17.0508 29.4326C17.1973 29.1338 17.2705 28.7969 17.2705 28.4219C17.2705 28.041 17.1973 27.6865 17.0508 27.3584C16.9043 27.0303 16.6729 26.7666 16.3564 26.5674C16.04 26.3682 15.6299 26.2686 15.126 26.2686H12.7793V37H10.1426V24.2031H15.126C16.1279 24.2031 16.9863 24.3848 17.7012 24.748C18.4219 25.1055 18.9727 25.6006 19.3535 26.2334C19.7344 26.8662 19.9248 27.5898 19.9248 28.4043C19.9248 29.2305 19.7344 29.9453 19.3535 30.5488C18.9727 31.1523 18.4219 31.6182 17.7012 31.9463C16.9863 32.2744 16.1279 32.4385 15.126 32.4385ZM31.7272 24.2031V37H29.0905L23.9489 28.4219V37H21.3121V24.2031H23.9489L29.0992 32.79V24.2031H31.7272ZM43.7317 30.3115V35.3828C43.5325 35.623 43.2249 35.8838 42.8089 36.165C42.3928 36.4404 41.8567 36.6777 41.2005 36.877C40.5442 37.0762 39.7503 37.1758 38.8186 37.1758C37.9924 37.1758 37.2395 37.041 36.5598 36.7715C35.8801 36.4961 35.2942 36.0947 34.802 35.5674C34.3157 35.04 33.9407 34.3955 33.677 33.6338C33.4133 32.8662 33.2815 31.9902 33.2815 31.0059V30.2061C33.2815 29.2217 33.4075 28.3457 33.6594 27.5781C33.9172 26.8105 34.2835 26.1631 34.7581 25.6357C35.2327 25.1084 35.7981 24.707 36.4544 24.4316C37.1106 24.1562 37.8401 24.0186 38.6428 24.0186C39.7561 24.0186 40.6702 24.2002 41.385 24.5635C42.0999 24.9209 42.6448 25.4189 43.0198 26.0576C43.4006 26.6904 43.635 27.417 43.7229 28.2373H41.1653C41.1008 27.8037 40.9778 27.4258 40.7962 27.1035C40.6145 26.7812 40.3538 26.5293 40.0139 26.3477C39.6799 26.166 39.2464 26.0752 38.7131 26.0752C38.2737 26.0752 37.8811 26.166 37.5354 26.3477C37.1956 26.5234 36.9085 26.7842 36.6741 27.1299C36.4397 27.4756 36.261 27.9033 36.138 28.4131C36.0149 28.9229 35.9534 29.5146 35.9534 30.1885V31.0059C35.9534 31.6738 36.0178 32.2656 36.1467 32.7812C36.2756 33.291 36.4661 33.7217 36.718 34.0732C36.9758 34.4189 37.2922 34.6797 37.6672 34.8555C38.0422 35.0312 38.4788 35.1191 38.9768 35.1191C39.3928 35.1191 39.7385 35.084 40.0139 35.0137C40.2952 34.9434 40.5208 34.8584 40.6907 34.7588C40.8665 34.6533 41.0012 34.5537 41.095 34.46V32.1924H38.6868V30.3115H43.7317Z" fill="#F3CE38"/>
<path fill-rule="evenodd" clip-rule="evenodd" d="M48.0039 76.9883L40.9727 85.9883H68.9922L59.9922 74L52.9961 83L48.0039 76.9883ZM73 87.9922C73 89.0938 72.6074 90.0371 71.8223 90.8223C71.0371 91.6074 70.0938 92 68.9922 92H40.9727C39.8945 92 38.9629 91.6074 38.1777 90.8223C37.3926 90.0371 37 89.0938 37 87.9922V59.9727C37 58.8945 37.3926 57.9629 38.1777 57.1777C38.9629 56.3926 39.8945 56 40.9727 56H68.9922C70.0938 56 71.0371 56.3867 71.8223 57.1602C72.6074 57.9336 73 58.8711 73 59.9727V87.9922Z" fill="#F3CE38"/>
</svg>
