<svg width="96" height="107" viewBox="0 0 96 107" fill="none" xmlns="http://www.w3.org/2000/svg">
<path d="M95.7694 106.363H14V0H70.2165L95.7694 25.3245V106.363Z" fill="#32373F"/>
<path d="M92.2753 28.0582H68V4L92.2753 28.0582Z" fill="#D1D1D1"/>
<rect y="16" width="55" height="28" rx="4" fill="black"/>
<path d="M11.2275 34.9697L13.7764 24.2031H15.2002L15.5254 25.9961L12.8096 37H11.2803L11.2275 34.9697ZM9.91797 24.2031L12.0273 34.9697L11.8516 37H10.1465L7.30762 24.2031H9.91797ZM17.7666 34.9258L19.8496 24.2031H22.46L19.6299 37H17.9248L17.7666 34.9258ZM16 24.2031L18.5664 35.0137L18.4961 37H16.9668L14.2334 25.9873L14.585 24.2031H16ZM28.277 26.3916L24.7965 37H21.9928L26.7477 24.2031H28.5319L28.277 26.3916ZM31.1686 37L27.6793 26.3916L27.3981 24.2031H29.1998L33.9811 37H31.1686ZM31.0104 32.2363V34.3018H24.2516V32.2363H31.0104ZM38.6292 34.3281L41.6438 24.2031H44.5794L40.1233 37H38.1897L38.6292 34.3281ZM35.8518 24.2031L38.8577 34.3281L39.3147 37H37.3635L32.9339 24.2031H35.8518Z" fill="#D1D1D1"/>
<path fill-rule="evenodd" clip-rule="evenodd" d="M62.9844 65.9922V61.9844H55.0039V72.9883C54.582 72.6836 54.1191 72.4434 53.6152 72.2676C53.1113 72.0918 52.5664 72.0039 51.9805 72.0039C50.5976 72.0039 49.4199 72.4902 48.4473 73.4629C47.4746 74.4356 46.9883 75.6133 46.9883 76.9961C46.9883 78.3789 47.4746 79.5566 48.4473 80.5293C49.4199 81.502 50.5976 81.9883 51.9805 81.9883C53.3633 81.9883 54.5469 81.502 55.5312 80.5293C56.5156 79.5566 57.0078 78.3789 57.0078 76.9961V65.9922H62.9844ZM55.0039 52C57.7461 52 60.3359 52.5215 62.7734 53.5645C65.2109 54.6074 67.332 56.0371 69.1367 57.8535C70.9414 59.6699 72.3711 61.791 73.4258 64.2168C74.4805 66.6426 75.0078 69.2383 75.0078 72.0039C75.0078 74.7461 74.4805 77.3359 73.4258 79.7734C72.3711 82.2109 70.9414 84.332 69.1367 86.1367C67.332 87.9414 65.2109 89.3711 62.7734 90.4258C60.3359 91.4805 57.7461 92.0078 55.0039 92.0078C52.2383 92.0078 49.6426 91.4805 47.2168 90.4258C44.791 89.3711 42.6699 87.9414 40.8535 86.1367C39.0371 84.332 37.6074 82.2109 36.5645 79.7734C35.5215 77.3359 35 74.7461 35 72.0039C35 69.2383 35.5215 66.6426 36.5645 64.2168C37.6074 61.791 39.0371 59.6699 40.8535 57.8535C42.6699 56.0371 44.791 54.6074 47.2168 53.5645C49.6426 52.5215 52.2383 52 55.0039 52Z" fill="#D1D1D1"/>
</svg>
